<?xml version="1.0" standalone="no"?>
<!DOCTYPE svg PUBLIC "-//W3C//DTD SVG 20010904//EN"
 "http://www.w3.org/TR/2001/REC-SVG-20010904/DTD/svg10.dtd">
<svg version="1.0" xmlns="http://www.w3.org/2000/svg"
 width="700.000000pt" height="700.000000pt" viewBox="0 0 700.000000 700.000000"
 preserveAspectRatio="xMidYMid meet">
<metadata>
Created by potrace 1.14, written by Peter Selinger 2001-2017
</metadata>
<g transform="translate(0.000000,700.000000) scale(0.100000,-0.100000)"
fill="#000000" stroke="none">
<path d="M954 5856 c-1 -6 -2 -1071 -1 -2366 l2 -2355 277 -1 c189 0 279 3
281 10 5 14 -1 3043 -7 3181 -2 55 -7 186 -11 290 -4 105 -8 215 -10 247 -10
178 -17 287 -20 313 -2 17 -6 80 -10 140 -4 61 -8 117 -10 125 -2 8 -6 51 -9
95 l-6 80 26 -80 c14 -44 30 -93 34 -110 5 -16 17 -59 28 -95 86 -280 161
-524 235 -765 31 -99 103 -335 162 -525 59 -190 113 -366 121 -392 8 -27 20
-69 28 -95 49 -165 89 -289 96 -297 7 -7 498 -12 504 -4 2 1 30 91 64 198 33
107 108 348 167 535 166 530 263 839 306 980 22 72 44 141 49 155 5 14 21 64
35 112 14 48 29 89 33 92 4 2 7 -936 7 -2086 0 -1149 3 -2094 6 -2099 6 -10
1361 -5 1429 5 19 3 55 8 80 11 84 12 105 16 190 36 243 59 459 179 623 346
228 233 353 499 384 820 10 102 10 2198 0 2283 -13 110 -15 125 -36 212 -106
447 -447 803 -900 937 -87 26 -135 37 -251 56 -92 16 -287 20 -1000 20 l-804
0 -54 -175 c-29 -96 -90 -292 -134 -435 -44 -143 -104 -341 -135 -440 -65
-214 -110 -360 -193 -630 -55 -179 -91 -294 -107 -349 -5 -17 -31 66 -179 574
-49 168 -67 227 -102 345 -17 55 -32 109 -35 120 -6 23 -55 190 -91 310 -14
44 -57 190 -96 325 -39 135 -79 270 -89 300 l-18 55 -427 1 c-296 0 -429 -3
-432 -10z m3791 -521 c129 -19 283 -78 384 -148 151 -104 283 -321 316 -523 3
-21 9 -55 12 -74 3 -19 6 -501 7 -1070 1 -1071 -1 -1132 -40 -1270 -77 -268
-255 -459 -505 -540 -148 -49 -239 -57 -643 -58 l-366 0 0 1848 0 1849 393 -3
c215 -2 415 -7 442 -11z"/>
</g>
</svg>
